<?xml version="1.0" encoding="UTF-8"?>
<svg id="Final" xmlns="http://www.w3.org/2000/svg" viewBox="0 0 150 150">
  <defs>
    <style>
      .cls-1 {
        fill: #fff;
      }

      .cls-2 {
        fill: #fee8b5;
      }

      .cls-3 {
        fill: gray;
      }

      .cls-4 {
        fill: #fefefe;
      }

      .cls-5 {
        fill: #df001c;
      }
    </style>
  </defs>
  <circle id="Background" class="cls-3" cx="75" cy="75" r="54.15"/>
  <g id="Ring">
    <path id="Ring_Background" data-name="Ring Background" d="M75,0C33.58,0,0,33.58,0,75s33.58,75,75,75,75-33.58,75-75S116.42,0,75,0ZM75,129.15c-29.91,0-54.15-24.24-54.15-54.15s24.24-54.15,54.15-54.15,54.15,24.24,54.15,54.15-24.24,54.15-54.15,54.15Z"/>
    <g id="Ring_Foreground" data-name="Ring Foreground">
      <path class="cls-4" d="M83.66,4.17l-.75,7.03c1.29.24,2.62.34,3.91.58.77.14,2.57.45,3.2.7.13.05.28.05.33.21l-1.51,6.65-6.82-1.19.74-6.92c-2.52-.51-5.12-.35-7.67-.56V3.63s8.55.54,8.55.54Z"/>
      <path class="cls-4" d="M49.75,8.41c.29.18,2.05,5.62,2.41,6.36l7.57-2.16,1.63,6.71-6.54,2.05-2.62-6.48-7.07,3.01-3.15-6.16c1.28-.59,2.54-1.28,3.83-1.86.93-.42,2.51-1.19,3.43-1.45.14-.04.41-.11.53-.03Z"/>
      <path class="cls-4" d="M18.02,45.12l-3.2,7.01-6.53-2.55c.59-1.24,1.03-2.55,1.6-3.8.21-.45,1.82-3.77,2.03-3.82l6.09,3.15Z"/>
      <path class="cls-4" d="M38.37,22.24l-5.98,4.56-4.51-5.13c0-.12.17-.35.26-.45.37-.42,1.47-1.25,1.97-1.66,1.29-1.06,2.7-1.99,4-3.04.45-.34.66.19.9.51.82,1.08,2.75,3.63,3.28,4.74.07.16.16.3.08.48Z"/>
      <path class="cls-4" d="M100.23,8.19c.06.25-.03.47-.09.7-.53,1.86-1.59,3.77-2.15,5.65l-.2.24-7.29-2.16,1.53-6.52.28-.31,7.93,2.39Z"/>
      <path class="cls-4" d="M12.5,59.63l-1.3,7.56-6.9-.86c.35-2.31.55-4.67,1.08-6.95.02-.09.19-.08.21-.16.07-.33-.04-.85.11-1.22l6.81,1.63Z"/>
      <path class="cls-4" d="M141.81,49.77c.98,2.65,1.87,5.35,2.5,8.11l-6.81,1.62-2.16-7.35,6.48-2.39Z"/>
      <path class="cls-4" d="M105.14,17.62s.15-.04.22-.16c.97-1.87,1.92-3.76,2.95-5.6l7.19,4.4-3.95,5.76-6.34-3.82c-.14-.15-.16-.39-.08-.57Z"/>
      <path class="cls-4" d="M133.9,34.62c.76,1.3,1.65,2.52,2.42,3.81.51.85,1.37,2.17,1.74,3.03.06.14.11.28.09.44l-6.11,3.09-3.98-6.54c1.41-.93,2.82-1.88,4.21-2.85.29-.2,1.24-1.21,1.63-.98Z"/>
      <path class="cls-4" d="M22.24,38.38l-5.83-3.96c1.6-2.33,3.36-4.54,5.25-6.64l5.15,4.59-4.56,6.01Z"/>
      <path class="cls-1" d="M67.2,11.21l-7.47,1.3-1.63-6.55c0-.09.04-.16.1-.23.37-.45,7.18-1.35,8.24-1.45l.76,6.82s0,.07,0,.11Z"/>
      <polygon class="cls-4" points="122.4 21.72 128.39 27.63 123.25 32.33 117.78 26.86 122.4 21.72"/>
      <path class="cls-4" d="M21.5,54.64l-2.06,6.6-6.81-1.63c.56-2.5,1.33-4.96,2.28-7.34l6.59,2.37Z"/>
      <path class="cls-4" d="M24.42,48.35l-6.28-3.14c.12-.21.11-.47.22-.68.93-1.76,2.14-3.5,3.25-5.14.19-.28.29-.67.59-.88l5.68,3.95-3.47,5.89Z"/>
      <path class="cls-4" d="M67.2,11.1l7.91-.32v6.93h-2.65s-4.28.43-4.28.43c-.3-2.14-.49-4.29-.77-6.44-.03-.23-.2-.44-.21-.5,0-.04,0-.07,0-.11Z"/>
      <path class="cls-4" d="M42.41,27.77l-3.79-5.66c2.07-1.48,4.25-2.82,6.53-3.96l3.2,6.09-5.94,3.52Z"/>
      <path class="cls-4" d="M37.09,32.01c.15.21-.2.25-.33.37-1.54,1.5-3.14,2.94-4.49,4.61l-5.26-4.51c-.02-.14.04-.22.11-.32.22-.34,1.36-1.46,1.74-1.84,1.16-1.19,2.41-2.29,3.63-3.41l4.6,5.09Z"/>
      <polygon class="cls-4" points="107.72 27.98 111.56 22.14 117.67 26.86 113.06 32.01 107.72 27.98"/>
      <path class="cls-4" d="M127.96,38.61l-5.79,3.8-4.16-5.37,5.22-4.6c1.64,2,3.39,3.96,4.72,6.17Z"/>
      <path class="cls-1" d="M134.97,52.34l-6.35,2.29-2.71-6.2,6.1-3.21c.55,1.14,1.19,2.24,1.71,3.39.33.73,1.2,2.55,1.34,3.22.04.2.04.35-.09.51Z"/>
      <polygon class="cls-4" points="104.89 18.04 101.68 24.21 95.47 21.49 97.92 15.01 104.89 18.04"/>
      <path class="cls-4" d="M138.9,67.31l-6.93.75-1.2-6.82c.88-.01,6.34-1.74,6.72-1.47.31.22,1.28,6.68,1.4,7.53Z"/>
      <path class="cls-4" d="M69.13,137.63c.96-.13,2.81.22,3.04,1.35.36,1.84-3.44,2.24-4.46.78-.79-1.12.35-1.98,1.43-2.13Z"/>
      <path class="cls-4" d="M139.44,75l-.43-7.8,6.93-.65c.07,1.61.35,3.21.44,4.82,1.33,23.97-10.02,47.27-29.26,61.29-25.44,18.55-60.01,18.29-85.1-.76C14.4,118.53,3.57,97.29,3.74,75h7.04l.43-7.69,6.93.76c-1.69,14.58,2.11,29.09,10.74,40.87,18.63,25.4,54.46,31.04,80,12.35,14.63-10.7,23.59-28.02,23.51-46.29h7.04ZM137.27,81.39l-2.6-.54-3.46,15.48,2.49.51,1.19-5.04,7.15,1.44,1.17-4.96-7.02-1.7,1.07-5.19ZM16.29,82.81l-10.17,1.29,1.4,5.26,4.55-.61-1.28,4.69,3.45,3.27-4.12,1.86,1.31,5.23,9.43-3.97c-.23-1.75-.88-3.45-1.32-5.17-.36-.6-3.32-2.26-3.44-2.63-.14-.42,1.49-3.41,1.6-4.09l-1.4-5.13ZM133.38,106.19c.03-1.46-.21-3.5-1.66-4.24-2.17-1.11-4.06.86-5.31,2.41-2.35,2.89-4.21,6.36-6.45,9.35l8.75,5.58,2.78-4.1c.07-.11.09-.24.05-.36-.11-.35-5.47-3.43-6.15-3.98v-.24c.9-.93,1.66-3.55,3.38-2.66,1.23.63.58,2.44.28,3.45.21.19,4.95-.96,5.63-1.03l3.47-5.03-4.76.87ZM23.99,122.65c.23.03.35-.18.48-.33,2.04-2.42,3.75-5.4,5.79-7.86l.1-.29-5.58-7.31-10.32,3.02,3.21,4.32,8.16-2.42-4.87,6.72,3.04,4.17ZM41.97,132.18c1.66.09,4.47-.29,4.76-2.34.3-2.17-1.94-3.82-3.47-4.96-2.78-2.07-5.81-3.87-8.7-5.8l-5.91,8.17,4.59,2.99,4.13-5.75c.08-.12.17-.12.3-.1.14.02,2.16,1.37,2.35,1.55.31.29.41.42.44.86.15,2.13-2.42,1.5-3.69,1.03.23,1.83.57,3.66.99,5.46,1.56,1.27,3.34,2.31,5.02,3.42l-.81-4.55ZM124.06,124.93l-8.95-5.62-7.63,5.58,3.58,9.78,4.32-3.22-2.69-7.61,7.09,4.32,4.28-3.24ZM102.29,128.5l-5.8,1.84-2.98,5.64c-.28.04-.17-.02-.23-.15-.55-1.21-.89-2.71-1.41-3.95l-5.25,1.61,3.31,9.17,5.19-1.59-1.4-4.21,6.12,2.7,5.8-1.83-6.5-3.03,3.14-6.17ZM57.56,132.08l-4.76-1.51c-.15,1.06-3.26,8.28-3,8.66.14.2,4.05,1.42,4.62,1.58l3.14-8.73ZM67.83,133.95c-7.86.76-8.3,8.34-.43,10.11,3.24.73,10.02.14,10.51-4.15.55-4.8-6.5-6.31-10.08-5.97Z"/>
    </g>
  </g>
  <g id="Inner_Elements" data-name="Inner Elements">
    <path id="Right_Stem" data-name="Right Stem" d="M121.35,93.52c-.61,2.67-3.18,4.11-5.79,4.23-.31.01-.98-.17-1.14-.06-.43.27-1.51,2.68-2.06,3.15,1.23-.55,2.52-1.24,3.92-1.11.41.04,2.27.56,2.45.85.19.33-.6,1.11-.85,1.34-1.87,1.69-4.53,1.6-6.76.72l-2.45,2.74c-.05.23.1.18.26.15.36-.06.72-.26,1.1-.31,1.63-.19,3.16.12,4.43,1.18.9.76.64.97-.34,1.49-2.03,1.09-4.11.67-6.02-.44-.27-.16-.76-.67-.97-.62-.12.03-1.48,1.38-1.76,1.61-.57.47-1.34,1.12-1.95,1.52-.09.06-.11.15-.27.11.01-.22-.3-.45-.32-.61-.02-.21,1.61-1.18,1.82-1.51-1.26-1.77-2.16-3.8-1.69-6.02.07-.33.61-1.98.98-1.92.07.01.62.58.72.7,1.5,1.82,1.52,4.36.76,6.5.53-.19,3.47-3.1,3.45-3.34-1.24-1.73-2.14-3.76-1.66-5.92.07-.32.6-2.03.97-1.94.06.01.73.7.82.81,1.32,1.66,1.36,3.92.87,5.9.96-.97,1.82-2.11,2.49-3.31-.32-.71-.79-1.34-1.06-2.07-.58-1.62-.75-4.35.53-5.7.31-.33.54.06.79.37,1.1,1.39,1.34,2.98,1.15,4.7,0,.07-.07.48.11.32.48-1.16,1.78-2.86,2.03-4.03.14-.66-.24-1.85-.2-2.69.09-1.72.81-3.56,2.17-4.65.39-.31.75-.73,1.03-.16.98,2.01.12,4.76-1.14,6.44-.31.42-.93.92-1.17,1.32s-.4,1.08-.66,1.5c.42-.16.73-.5,1.12-.72,1.4-.8,2.73-.96,4.3-.52ZM108.52,105.54v.11c.07-.04.07-.07,0-.11Z"/>
    <path id="Left_Stem" data-name="Left Stem" d="M36.34,94.77c.08-.77.6-1.99,1.08-2.6.12-.16.71-.83.87-.64s.46.8.55,1.05c.96,2.37.26,4.8-1.1,6.84l2.49,3.52c.19.03.08-.11.06-.22-.28-1.71-.55-3.12.19-4.79.16-.36,1.29-2.2,1.7-1.92.06.04.5,1.08.55,1.24.85,2.45-.06,4.73-1.51,6.7l3.4,3.32c0-.71-.32-1.4-.38-2.11-.11-1.42.16-3,1.03-4.16.13-.17.98-1.08,1.13-.98,1.52,2.52.97,5.74-.97,7.86-.06.28,1.62,1.2,1.79,1.45.11.18-.15.64-.24.66-.28.05-1.62-1.06-1.93-1.31-.72-.58-1.38-1.23-2.08-1.82-.58.24-1.02.7-1.59.98-2.14,1.04-4.61,1.05-6.35-.72,1.64-2.08,4.35-2.35,6.71-1.41l-2.67-3.08c-2.34.91-5.13,1-7.02-.88-1.03-1.02-.77-1.3.54-1.74,1.91-.64,3.45-.07,5.15.82l-1.96-3.18c-2.88.45-6.3-1-6.93-4.06,1.26-.51,2.75-.33,3.94.28.52.27.97.73,1.48,1.01-.29-.52-.48-1.21-.79-1.7-.26-.41-.65-.66-.93-1.02-1.58-2.04-2.31-4.52-1.19-6.98.2-.14,1.17.67,1.35.86,1.74,1.78,1.92,4.52,1.48,6.85l2.15,4.41c.28-.01,0-.42,0-.49,0-.64-.07-1.44,0-2.06Z"/>
    <path id="Center_Star" data-name="Center Star" d="M75.22,113.66l1.78,3.69c1.39.35,2.86.53,4.28.64.05.21-.08.21-.18.3-.98.9-1.93,1.82-2.83,2.81l.63,4.25-3.75-1.92-3.93,1.92.73-4.16c-.05-.25-2.47-2.39-2.84-2.88-.08-.11-.21-.14-.16-.33l4.2-.56c.2-.13,1.39-3.08,1.77-3.59.09-.12.11-.22.31-.18Z"/>
    <path id="Right_Star" data-name="Right Star" d="M96.44,113.99c.17.17-1.22,2.59-1.19,3.08.02.35,1.78,2.73,1.62,2.88l-3.33-.26c-.2.15-2.08,2.65-2.2,2.53l-.78-3.33c-.37-.17-3-1.1-3.01-1.27l2.76-1.68c.19-1.1.25-2.24.27-3.36.07-.08.71.46.81.54.33.27,1.59,1.55,1.86,1.59l3.18-.73Z"/>
    <path id="Left_Star" data-name="Left Star" d="M59.51,112.58l.27,3.25.34.31,2.53,1.53c-.57.36-2.74.89-3.08,1.3-.26.31-.65,3.26-.87,3.24l-2.08-2.47c-1.14-.1-2.26.17-3.39.2l1.71-2.89-1.28-3.07c.19-.18,2.79.81,3.39.63.2-.06,1.77-1.59,2.13-1.87.11-.08.14-.21.33-.16Z"/>
  </g>
  <g id="Mushroom">
    <path id="Face_Fill" data-name="Face Fill" class="cls-2" d="M72.92,81.42c9.06-.34,19.44,1.86,26.23,8.15.11.08.1.2.12.32.25,2.04-.22,5.47-.77,7.47-1.2,4.37-3.46,7.13-7.73,8.73-7.58,2.83-20.15,2.92-28,1.14-6.06-1.38-9.86-3.46-11.72-9.72-.57-1.9-1.13-5.45-.95-7.4.02-.26.03-.35.17-.59.28-.44,1.39-1.37,1.84-1.73,5.54-4.45,13.84-6.1,20.82-6.36Z"/>
    <g id="Right_Eye" data-name="Right Eye">
      <path id="Eye" d="M83.74,85.1c2.46-.51,2.85,3.35,2.95,5.01.12,1.88.12,7.57-.97,8.99-.62.8-1.92,1.09-2.54.15-1.29-1.96-1.15-9.21-.81-11.62.12-.86.36-2.32,1.37-2.53Z"/>
      <path id="Reflection" class="cls-4" d="M84.18,86.06c.56-.1.94.48,1.08.93.27.83.36,3.73-.9,3.81-1.49.1-1.54-4.5-.18-4.75Z"/>
    </g>
    <g id="Left_Eye" data-name="Left Eye">
      <path id="Eye-2" data-name="Eye" d="M65.66,85.1c1.34-.22,1.93.75,2.16,1.9.47,2.28.49,9.21-.29,11.35-.51,1.41-2.1,2.22-3.01.73-1.29-2.12-1.15-10.5-.19-12.8.23-.56.7-1.07,1.32-1.17Z"/>
      <path id="Reflection-2" data-name="Reflection" class="cls-4" d="M65.87,86.06c1.66-.3,1.6,4.66.18,4.75-1.52.1-1.58-4.49-.18-4.75Z"/>
    </g>
    <g id="Hat">
      <path id="Hat_Fill" data-name="Hat Fill" class="cls-5" d="M101.75,91.9v-1.9c0-.14-.12-.85-.16-1.04-.38-1.88-5.39-5.28-7.1-6.22-11.93-6.56-32.87-6.37-43.59,2.55-1.13.94-3.31,2.86-3.31,4.38v1.9c-5.22-1.97-9.49-6.41-11.53-11.59-.18-.46-.63-1.59-.7-2.01-.09-.56.66-1.03,1.02-1.45,6.65-7.86,8.52-18.27,6.13-28.23-.18-.74-.55-1.48-.64-2.28,0-.25,1.58-2.35,1.88-2.73,12.04-15.59,33.02-20.68,50.44-10.71,5.63,3.22,10.44,7.89,14,13.3.08.15.04.3.02.46-.09.93-.71,2.47-.92,3.53-2.08,10.62.66,19.18,7.11,27.37.13.16.43.17.44.43,0,.12-.73,1.91-.85,2.19-1.68,3.93-4.72,7.68-8.3,10-1.25.81-2.62,1.4-3.96,2.06Z"/>
      <path id="Hat_Middle_Spot" data-name="Hat Middle Spot" class="cls-1" d="M73.35,30.84c16.67-1.24,28.34,16.97,18.3,30.98-9.07,12.65-29.14,10.7-35.31-3.64-5.39-12.54,3.67-26.34,17-27.33Z"/>
      <path id="Hat_Right_Spot" data-name="Hat Right Spot" class="cls-4" d="M115.29,75.54c-6.57-7.25-8.37-18.07-5.85-27.4.07-.06.19.18.24.25.71,1.13,1.55,3,2.13,4.26,3.29,7.18,4.72,15,3.48,22.89Z"/>
      <path id="Hat_Left_Spot" data-name="Hat Left Spot" class="cls-4" d="M34.82,75.54c.02-.97-.25-1.91-.32-2.87-.59-7.79,1.85-17.75,6.04-24.39.06-.1.1-.24.24-.25.26,1.47.66,2.92.85,4.4.95,7.45-1.13,17.42-6.48,22.94-.1.11-.14.2-.32.16Z"/>
      <path id="Middle_Spot_Outline" data-name="Middle Spot Outline" d="M73.57,29.11c15.37-1.02,27.55,13.93,22.12,28.72-4.97,13.54-21.93,18.33-33.61,10-16.73-11.93-8.62-37.39,11.49-38.72ZM73.35,30.84c-13.33.99-22.39,14.8-17,27.33,6.17,14.35,26.24,16.3,35.31,3.64,10.04-14.01-1.64-32.21-18.3-30.98Z"/>
    </g>
    <path id="Outline" d="M101.55,95.48c-.63,5.89-3.34,11.51-9.2,13.6-9.77,3.49-25.07,3.73-34.81.11-6.28-2.33-9.09-7.51-9.88-13.94-1.86-.83-3.71-1.56-5.44-2.68-17.22-11.15-12-37.04-1.37-51.02,13.54-17.83,37.69-23.1,56.89-10.78,13.7,8.79,22.72,26.4,21.24,42.77-.9,9.93-7.79,19.06-17.42,21.95ZM101.75,91.9c1.34-.65,2.7-1.24,3.96-2.06,3.59-2.32,6.63-6.08,8.3-10,.12-.28.85-2.07.85-2.19,0-.25-.31-.26-.44-.43-6.45-8.2-9.19-16.75-7.11-27.37.21-1.06.83-2.6.92-3.53.02-.16.05-.31-.02-.46-3.56-5.41-8.37-10.07-14-13.3-17.41-9.97-38.39-4.88-50.44,10.71-.29.38-1.88,2.48-1.88,2.73.09.8.46,1.53.64,2.28,2.38,9.96.52,20.37-6.13,28.23-.36.42-1.12.89-1.02,1.45.07.42.52,1.55.7,2.01,2.04,5.18,6.31,9.62,11.53,11.59v-1.9c0-1.53,2.17-3.44,3.31-4.38,10.72-8.92,31.66-9.11,43.59-2.55,1.71.94,6.72,4.34,7.1,6.22.04.19.16.9.16,1.04v1.9ZM34.82,75.54c.18.04.22-.06.32-.16,5.35-5.53,7.44-15.5,6.48-22.94-.19-1.48-.59-2.93-.85-4.4-.14,0-.18.15-.24.25-4.19,6.64-6.63,16.59-6.04,24.39.07.96.34,1.9.32,2.87ZM115.29,75.54c1.24-7.89-.19-15.71-3.48-22.89-.58-1.26-1.42-3.13-2.13-4.26-.04-.07-.17-.3-.24-.25-2.52,9.33-.72,20.15,5.85,27.4ZM72.92,81.42c-6.98.26-15.28,1.91-20.82,6.36-.45.36-1.56,1.3-1.84,1.73-.15.23-.15.32-.17.59-.18,1.95.39,5.5.95,7.4,1.86,6.26,5.67,8.34,11.72,9.72,7.85,1.79,20.42,1.69,28-1.14,4.28-1.59,6.53-4.36,7.73-8.73.55-2,1.02-5.43.77-7.47-.01-.12,0-.24-.12-.32-6.79-6.28-17.17-8.49-26.23-8.15Z"/>
  </g>
</svg>